<svg width="1700" height="526" viewBox="0 0 1700 526" fill="none" xmlns="http://www.w3.org/2000/svg">
<path d="M32.211 166.324H0V519.209H200.571V490.35H32.211V166.324Z" fill="#28495D"/>
<path d="M250.024 327.738C257.089 313.01 266.908 301.155 279.721 292.174C292.533 283.313 307.382 278.763 324.265 278.763C341.149 278.763 355.878 283.194 368.092 292.055C380.305 300.916 389.645 312.89 396.112 328.098C401.5 340.431 404.613 354.202 405.571 369.289H239.726C240.565 354.441 243.917 340.551 250.024 327.738ZM401.859 282.834C391.082 272.058 378.988 264.035 365.577 258.766C352.166 253.497 338.395 250.863 324.146 250.863C301.275 250.863 281.158 256.73 263.795 268.585C246.432 280.44 232.901 296.725 223.202 317.321C213.503 338.036 208.593 361.626 208.593 388.329C208.593 415.031 213.503 438.621 223.322 459.097C233.141 479.573 247.031 495.739 265.232 507.234C283.433 518.849 304.747 524.597 329.414 524.597C346.897 524.597 362.464 521.723 376.114 515.975C389.765 510.228 401.141 502.684 410.241 493.224C419.342 483.884 425.928 473.586 429.999 462.57L400.901 452.87C397.549 460.773 392.639 468.078 386.173 474.783C379.707 481.489 371.684 486.878 362.224 490.829C352.764 494.781 341.748 496.697 329.295 496.697C310.974 496.697 295.048 492.386 281.517 483.644C267.986 475.023 257.568 462.809 250.264 447.123C243.439 432.514 239.846 415.391 239.367 396.112H436.345V382.341C436.345 359.59 433.232 339.952 427.125 323.547C421.018 307.023 412.516 293.492 401.74 282.715" fill="#28495D"/>
<path d="M635.359 417.546C635.359 431.915 632.126 445.207 625.66 457.301C619.194 469.515 609.974 479.094 598.119 486.279C586.265 493.463 572.135 497.056 555.85 497.056C538.367 497.056 523.878 492.625 512.383 483.764C500.887 474.903 495.259 462.57 495.259 446.524C495.259 435.747 498.013 427.006 503.641 420.3C509.269 413.475 517.412 408.086 528.069 404.135C538.726 400.183 551.419 397.309 566.267 395.393C571.656 394.795 577.882 393.957 584.828 392.999C591.892 392.041 598.838 390.963 605.663 389.646C612.488 388.448 618.595 386.892 623.864 385.095C629.133 383.299 632.965 381.383 635.359 379.228V417.307V417.546ZM634.162 268.585C624.702 262.119 614.524 257.569 603.627 254.814C592.731 252.06 582.193 250.743 572.135 250.743C558.723 250.743 545.432 252.659 532.38 256.491C519.208 260.323 507.473 266.669 496.816 275.291C486.279 284.032 477.897 295.527 471.909 309.896L501.247 320.554C505.917 309.178 514.299 299.359 526.393 290.977C538.367 282.595 553.934 278.404 573.093 278.404C593.09 278.404 608.537 283.553 619.314 293.851C630.091 304.149 635.479 318.398 635.479 336.599V342.826C635.479 349.412 632.845 354.202 627.456 357.315C622.068 360.309 614.284 362.464 603.987 363.781C593.689 365.098 581.116 366.775 566.387 368.571C551.419 370.367 537.649 372.882 525.315 376.234C512.862 379.587 502.204 384.257 492.984 390.005C483.764 395.753 476.819 403.057 471.909 411.918C467 420.779 464.605 431.676 464.605 444.848C464.605 461.851 468.557 476.34 476.34 488.314C484.123 500.169 494.661 509.27 507.952 515.496C521.244 521.723 535.852 524.836 551.778 524.836C566.627 524.836 579.439 522.441 590.336 517.771C601.232 512.982 610.333 506.994 617.518 499.69C624.822 492.386 630.091 484.842 633.683 477.059H635.599V518.969H666.373V339.473C666.373 321.751 663.379 307.142 657.512 295.527C651.644 283.912 643.861 274.931 634.401 268.345" fill="#28495D"/>
<path d="M817.011 250.863C800.486 250.863 785.518 254.934 772.346 263.077C759.175 271.219 749.835 281.996 744.566 295.408H742.171V254.455H712.594V519.208H743.129V348.454C743.129 335.402 746.242 323.667 752.349 313.489C758.456 303.311 766.958 295.288 777.855 289.42C788.631 283.553 800.845 280.679 814.496 280.679C818.807 280.679 822.639 280.919 826.111 281.278C829.584 281.637 831.979 281.996 833.176 282.116V251.102C831.14 250.983 828.626 250.863 825.513 250.863H817.13H817.011Z" fill="#28495D"/>
<path d="M1059.25 294.928C1051.71 280.559 1041.17 269.662 1027.64 262.238C1014.11 254.814 998.422 251.102 980.58 251.102C961.182 251.102 944.897 255.173 931.845 263.436C918.673 271.698 909.094 282.595 902.987 296.365H899.873V254.455H870.297V519.208H900.831V353.962C900.831 338.515 903.945 325.223 910.171 314.087C916.398 302.951 925.019 294.33 935.916 288.342C946.813 282.236 959.146 279.242 973.037 279.242C993.393 279.242 1009.68 285.588 1021.77 298.401C1033.99 311.213 1039.97 328.457 1039.97 350.01V519.328H1070.51V348.094C1070.51 327.139 1066.68 309.417 1059.13 295.048" fill="#28495D"/>
<path d="M1438.36 254.455H1376.09V519.208H1438.36V254.455Z" fill="#008082"/>
<path d="M1576.42 478.735C1589 478.735 1599.89 476.22 1609.12 471.311C1618.22 466.401 1625.4 459.696 1630.43 451.433C1635.46 443.171 1637.97 434.07 1637.97 424.251V393.238C1635.94 394.795 1632.58 396.231 1628.03 397.668C1623.48 398.986 1618.22 400.183 1612.47 401.38C1606.6 402.458 1600.85 403.416 1595.34 404.254C1589.72 405.092 1584.93 405.691 1580.74 406.17C1571.4 407.487 1563.13 409.523 1555.71 412.397C1548.41 415.271 1542.54 419.342 1538.35 424.371C1534.16 429.4 1532 435.986 1532 444.009C1532 455.505 1536.19 464.246 1544.57 469.993C1552.96 475.861 1563.61 478.735 1576.54 478.735M1560.5 524.597C1543.62 524.597 1528.41 521.603 1515 515.496C1501.59 509.389 1491.05 500.408 1483.26 488.674C1475.48 476.819 1471.65 462.21 1471.65 444.847C1471.65 429.999 1474.4 417.666 1479.91 407.847C1485.42 398.028 1492.96 390.244 1502.54 384.377C1512.12 378.509 1522.9 374.079 1534.87 370.966C1546.85 367.852 1559.3 365.697 1571.99 364.499C1587.56 362.703 1600.25 361.266 1609.83 359.949C1619.41 358.632 1626.48 356.596 1630.79 353.842C1635.1 350.968 1637.25 346.538 1637.25 340.551V339.353C1637.25 326.541 1633.42 316.602 1625.88 309.537C1618.34 302.472 1607.2 298.88 1592.71 298.88C1577.38 298.88 1565.29 302.233 1556.31 308.819C1547.45 315.405 1541.34 323.308 1538.23 332.288L1480.15 324.026C1484.7 307.98 1492.37 294.449 1502.9 283.672C1513.44 272.896 1526.37 264.753 1541.58 259.245C1556.79 253.856 1573.67 251.102 1592.11 251.102C1604.68 251.102 1617.38 252.539 1629.95 255.533C1642.52 258.407 1654.14 263.436 1664.8 270.381C1675.33 277.326 1683.84 286.666 1690.18 298.281C1696.53 310.016 1699.64 324.625 1699.64 342.107V519.208H1639.77V482.806H1637.85C1634.02 490.11 1628.75 496.936 1621.81 503.282C1614.98 509.629 1606.48 514.897 1596.18 518.729C1586 522.681 1573.91 524.597 1560.02 524.597" fill="#008082"/>
<path d="M1179.71 519.208L1180.43 515.856C1181.15 512.742 1187.38 484.363 1197.32 447.243C1199.23 440.178 1201.15 432.873 1203.3 425.329C1203.3 424.97 1203.54 424.611 1203.66 424.252L1150.74 254.455H1084.16L1178.16 519.208H1179.83H1179.71Z" fill="#008082"/>
<path d="M1621.57 101.303L1683.71 83.8206L1619.29 79.5098L1655.7 26.2239L1603.61 64.3024L1597.14 0.119812L1581.69 62.7457L1535.47 17.7221L1563.85 75.678L1499.55 70.8883L1551.04 93.7593C1546.85 94.1185 1542.54 94.5975 1538.35 95.0765C1444.71 106.811 1362.68 157.942 1305.44 232.183C1260.54 290.498 1238.03 359.71 1218.39 429.76C1216.36 437.304 1214.32 444.488 1212.52 451.433C1202.59 488.674 1196.48 516.694 1195.88 519.448H1252.04C1252.04 519.448 1295.99 340.91 1326.4 286.906C1372.62 204.881 1435.49 136.987 1526.25 108.847C1534.63 106.332 1543.02 104.057 1551.52 102.141L1506.25 134.712L1568.28 116.87L1552.36 179.376L1588.28 125.851L1616.3 183.926L1609.47 119.744L1668.27 146.327L1621.81 101.662L1621.57 101.303Z" fill="#8BC2C4"/>
</svg>
